<svg width="509" height="551" viewBox="0 0 409 451" fill="none" xmlns="http://www.w3.org/2000/svg">
<path d="M126.039 157.856V194.887H9.25787V157.856H126.039ZM38.0895 109.186H85.9659V299.898C85.9659 306.335 86.9358 311.272 88.8755 314.711C90.9034 318.061 93.5485 320.354 96.8108 321.588C100.073 322.822 103.688 323.44 107.656 323.44C110.654 323.44 113.387 323.219 115.856 322.778C118.413 322.337 120.352 321.941 121.675 321.588L129.742 359.016C127.185 359.898 123.526 360.868 118.765 361.926C114.092 362.984 108.361 363.601 101.572 363.777C89.5809 364.13 78.78 362.323 69.1695 358.355C59.5589 354.299 51.9322 348.039 46.2893 339.575C40.7346 331.11 38.0013 320.53 38.0895 307.833V109.186Z" fill="#FF0000"/>
<path d="M126.039 157.856V194.887H9.25787V157.856H126.039ZM38.0895 109.186H85.9659V299.898C85.9659 306.335 86.9358 311.272 88.8755 314.711C90.9034 318.061 93.5485 320.354 96.8108 321.588C100.073 322.822 103.688 323.44 107.656 323.44C110.654 323.44 113.387 323.219 115.856 322.778C118.413 322.337 120.352 321.941 121.675 321.588L129.742 359.016C127.185 359.898 123.526 360.868 118.765 361.926C114.092 362.984 108.361 363.601 101.572 363.777C89.5809 364.13 78.78 362.323 69.1695 358.355C59.5589 354.299 51.9322 348.039 46.2893 339.575C40.7346 331.11 38.0013 320.53 38.0895 307.833V109.186Z" fill="#FF0000"/>
<path d="M107.392 278.295V229.452H116.518V237.401H117.122C118.14 234.709 119.804 232.61 122.115 231.105C124.425 229.579 127.192 228.816 130.414 228.816C133.679 228.816 136.414 229.579 138.618 231.105C140.844 232.631 142.487 234.73 143.547 237.401H144.056C145.222 234.794 147.077 232.716 149.621 231.169C152.165 229.6 155.196 228.816 158.715 228.816C163.146 228.816 166.76 230.204 169.559 232.981C172.378 235.758 173.788 239.945 173.788 245.542V278.295H164.28V246.432C164.28 243.125 163.379 240.73 161.577 239.246C159.775 237.762 157.624 237.02 155.122 237.02C152.027 237.02 149.621 237.974 147.904 239.882C146.186 241.768 145.328 244.196 145.328 247.164V278.295H135.852V245.828C135.852 243.178 135.025 241.048 133.371 239.436C131.718 237.825 129.566 237.02 126.916 237.02C125.114 237.02 123.45 237.497 121.924 238.451C120.419 239.383 119.2 240.687 118.267 242.362C117.355 244.037 116.9 245.976 116.9 248.181V278.295H107.392ZM207.106 279.281C202.526 279.281 198.53 278.231 195.117 276.133C191.704 274.034 189.054 271.098 187.168 267.324C185.281 263.551 184.337 259.141 184.337 254.096C184.337 249.029 185.281 244.599 187.168 240.804C189.054 237.009 191.704 234.062 195.117 231.964C198.53 229.865 202.526 228.816 207.106 228.816C211.685 228.816 215.681 229.865 219.094 231.964C222.507 234.062 225.157 237.009 227.044 240.804C228.93 244.599 229.874 249.029 229.874 254.096C229.874 259.141 228.93 263.551 227.044 267.324C225.157 271.098 222.507 274.034 219.094 276.133C215.681 278.231 211.685 279.281 207.106 279.281ZM207.137 271.299C210.105 271.299 212.564 270.515 214.515 268.946C216.465 267.377 217.907 265.289 218.839 262.682C219.793 260.074 220.27 257.202 220.27 254.064C220.27 250.948 219.793 248.086 218.839 245.478C217.907 242.85 216.465 240.74 214.515 239.15C212.564 237.56 210.105 236.765 207.137 236.765C204.148 236.765 201.668 237.56 199.696 239.15C197.746 240.74 196.294 242.85 195.34 245.478C194.407 248.086 193.941 250.948 193.941 254.064C193.941 257.202 194.407 260.074 195.34 262.682C196.294 265.289 197.746 267.377 199.696 268.946C201.668 270.515 204.148 271.299 207.137 271.299ZM280.609 229.452L262.897 278.295H252.721L234.977 229.452H245.185L257.555 267.038H258.064L270.402 229.452H280.609ZM289.545 278.295V229.452H299.053V278.295H289.545ZM294.346 221.915C292.693 221.915 291.272 221.364 290.085 220.262C288.919 219.138 288.336 217.802 288.336 216.255C288.336 214.686 288.919 213.351 290.085 212.248C291.272 211.125 292.693 210.563 294.346 210.563C296 210.563 297.41 211.125 298.576 212.248C299.763 213.351 300.356 214.686 300.356 216.255C300.356 217.802 299.763 219.138 298.576 220.262C297.41 221.364 296 221.915 294.346 221.915ZM332.895 279.281C328.082 279.281 323.938 278.253 320.461 276.196C317.006 274.119 314.335 271.204 312.448 267.451C310.582 263.678 309.65 259.258 309.65 254.191C309.65 249.188 310.582 244.779 312.448 240.963C314.335 237.147 316.963 234.168 320.334 232.027C323.726 229.886 327.69 228.816 332.227 228.816C334.983 228.816 337.654 229.271 340.24 230.183C342.827 231.094 345.148 232.525 347.204 234.476C349.261 236.426 350.882 238.959 352.07 242.076C353.257 245.171 353.85 248.934 353.85 253.364V256.735H315.024V249.612H344.533C344.533 247.111 344.024 244.895 343.007 242.966C341.989 241.016 340.558 239.479 338.714 238.355C336.891 237.232 334.75 236.67 332.291 236.67C329.619 236.67 327.287 237.327 325.295 238.641C323.323 239.935 321.797 241.631 320.716 243.729C319.656 245.807 319.126 248.065 319.126 250.503V256.067C319.126 259.332 319.698 262.109 320.843 264.399C322.009 266.688 323.631 268.437 325.708 269.646C327.786 270.833 330.213 271.426 332.99 271.426C334.792 271.426 336.435 271.172 337.919 270.663C339.403 270.133 340.686 269.349 341.767 268.31C342.848 267.271 343.675 265.989 344.247 264.462L353.246 266.084C352.525 268.734 351.232 271.055 349.367 273.048C347.522 275.02 345.201 276.557 342.403 277.659C339.626 278.74 336.456 279.281 332.895 279.281ZM401 241.376L392.383 242.903C392.022 241.8 391.45 240.751 390.666 239.754C389.903 238.758 388.864 237.942 387.549 237.306C386.235 236.67 384.592 236.352 382.621 236.352C379.928 236.352 377.681 236.956 375.879 238.164C374.077 239.352 373.176 240.889 373.176 242.775C373.176 244.408 373.78 245.722 374.989 246.718C376.197 247.715 378.147 248.531 380.84 249.167L388.599 250.948C393.093 251.986 396.443 253.587 398.647 255.749C400.852 257.912 401.954 260.721 401.954 264.176C401.954 267.102 401.106 269.709 399.41 271.999C397.736 274.267 395.393 276.048 392.383 277.341C389.394 278.634 385.928 279.281 381.985 279.281C376.515 279.281 372.053 278.115 368.597 275.783C365.142 273.43 363.022 270.091 362.237 265.766L371.427 264.367C372 266.762 373.176 268.575 374.957 269.805C376.738 271.013 379.059 271.617 381.921 271.617C385.037 271.617 387.528 270.971 389.394 269.677C391.259 268.363 392.192 266.762 392.192 264.876C392.192 263.349 391.62 262.067 390.475 261.028C389.351 259.989 387.624 259.205 385.292 258.675L377.024 256.862C372.466 255.824 369.095 254.17 366.912 251.902C364.749 249.633 363.668 246.761 363.668 243.284C363.668 240.401 364.474 237.878 366.085 235.716C367.696 233.554 369.922 231.868 372.763 230.66C375.604 229.43 378.858 228.816 382.525 228.816C387.804 228.816 391.959 229.96 394.99 232.25C398.022 234.518 400.025 237.56 401 241.376Z" fill="white"/>
<path d="M107.392 278.295V229.452H116.518V237.401H117.122C118.14 234.709 119.804 232.61 122.115 231.105C124.425 229.579 127.192 228.816 130.414 228.816C133.679 228.816 136.414 229.579 138.618 231.105C140.844 232.631 142.487 234.73 143.547 237.401H144.056C145.222 234.794 147.077 232.716 149.621 231.169C152.165 229.6 155.196 228.816 158.715 228.816C163.146 228.816 166.76 230.204 169.559 232.981C172.378 235.758 173.788 239.945 173.788 245.542V278.295H164.28V246.432C164.28 243.125 163.379 240.73 161.577 239.246C159.775 237.762 157.624 237.02 155.122 237.02C152.027 237.02 149.621 237.974 147.904 239.882C146.186 241.768 145.328 244.196 145.328 247.164V278.295H135.852V245.828C135.852 243.178 135.025 241.048 133.371 239.436C131.718 237.825 129.566 237.02 126.916 237.02C125.114 237.02 123.45 237.497 121.924 238.451C120.419 239.383 119.2 240.687 118.267 242.362C117.355 244.037 116.9 245.976 116.9 248.181V278.295H107.392ZM207.106 279.281C202.526 279.281 198.53 278.231 195.117 276.133C191.704 274.034 189.054 271.098 187.168 267.324C185.281 263.551 184.337 259.141 184.337 254.096C184.337 249.029 185.281 244.599 187.168 240.804C189.054 237.009 191.704 234.062 195.117 231.964C198.53 229.865 202.526 228.816 207.106 228.816C211.685 228.816 215.681 229.865 219.094 231.964C222.507 234.062 225.157 237.009 227.044 240.804C228.93 244.599 229.874 249.029 229.874 254.096C229.874 259.141 228.93 263.551 227.044 267.324C225.157 271.098 222.507 274.034 219.094 276.133C215.681 278.231 211.685 279.281 207.106 279.281ZM207.137 271.299C210.105 271.299 212.564 270.515 214.515 268.946C216.465 267.377 217.907 265.289 218.839 262.682C219.793 260.074 220.27 257.202 220.27 254.064C220.27 250.948 219.793 248.086 218.839 245.478C217.907 242.85 216.465 240.74 214.515 239.15C212.564 237.56 210.105 236.765 207.137 236.765C204.148 236.765 201.668 237.56 199.696 239.15C197.746 240.74 196.294 242.85 195.34 245.478C194.407 248.086 193.941 250.948 193.941 254.064C193.941 257.202 194.407 260.074 195.34 262.682C196.294 265.289 197.746 267.377 199.696 268.946C201.668 270.515 204.148 271.299 207.137 271.299ZM280.609 229.452L262.897 278.295H252.721L234.977 229.452H245.185L257.555 267.038H258.064L270.402 229.452H280.609ZM289.545 278.295V229.452H299.053V278.295H289.545ZM294.346 221.915C292.693 221.915 291.272 221.364 290.085 220.262C288.919 219.138 288.336 217.802 288.336 216.255C288.336 214.686 288.919 213.351 290.085 212.248C291.272 211.125 292.693 210.563 294.346 210.563C296 210.563 297.41 211.125 298.576 212.248C299.763 213.351 300.356 214.686 300.356 216.255C300.356 217.802 299.763 219.138 298.576 220.262C297.41 221.364 296 221.915 294.346 221.915ZM332.895 279.281C328.082 279.281 323.938 278.253 320.461 276.196C317.006 274.119 314.335 271.204 312.448 267.451C310.582 263.678 309.65 259.258 309.65 254.191C309.65 249.188 310.582 244.779 312.448 240.963C314.335 237.147 316.963 234.168 320.334 232.027C323.726 229.886 327.69 228.816 332.227 228.816C334.983 228.816 337.654 229.271 340.24 230.183C342.827 231.094 345.148 232.525 347.204 234.476C349.261 236.426 350.882 238.959 352.07 242.076C353.257 245.171 353.85 248.934 353.85 253.364V256.735H315.024V249.612H344.533C344.533 247.111 344.024 244.895 343.007 242.966C341.989 241.016 340.558 239.479 338.714 238.355C336.891 237.232 334.75 236.67 332.291 236.67C329.619 236.67 327.287 237.327 325.295 238.641C323.323 239.935 321.797 241.631 320.716 243.729C319.656 245.807 319.126 248.065 319.126 250.503V256.067C319.126 259.332 319.698 262.109 320.843 264.399C322.009 266.688 323.631 268.437 325.708 269.646C327.786 270.833 330.213 271.426 332.99 271.426C334.792 271.426 336.435 271.172 337.919 270.663C339.403 270.133 340.686 269.349 341.767 268.31C342.848 267.271 343.675 265.989 344.247 264.462L353.246 266.084C352.525 268.734 351.232 271.055 349.367 273.048C347.522 275.02 345.201 276.557 342.403 277.659C339.626 278.74 336.456 279.281 332.895 279.281ZM401 241.376L392.383 242.903C392.022 241.8 391.45 240.751 390.666 239.754C389.903 238.758 388.864 237.942 387.549 237.306C386.235 236.67 384.592 236.352 382.621 236.352C379.928 236.352 377.681 236.956 375.879 238.164C374.077 239.352 373.176 240.889 373.176 242.775C373.176 244.408 373.78 245.722 374.989 246.718C376.197 247.715 378.147 248.531 380.84 249.167L388.599 250.948C393.093 251.986 396.443 253.587 398.647 255.749C400.852 257.912 401.954 260.721 401.954 264.176C401.954 267.102 401.106 269.709 399.41 271.999C397.736 274.267 395.393 276.048 392.383 277.341C389.394 278.634 385.928 279.281 381.985 279.281C376.515 279.281 372.053 278.115 368.597 275.783C365.142 273.43 363.022 270.091 362.237 265.766L371.427 264.367C372 266.762 373.176 268.575 374.957 269.805C376.738 271.013 379.059 271.617 381.921 271.617C385.037 271.617 387.528 270.971 389.394 269.677C391.259 268.363 392.192 266.762 392.192 264.876C392.192 263.349 391.62 262.067 390.475 261.028C389.351 259.989 387.624 259.205 385.292 258.675L377.024 256.862C372.466 255.824 369.095 254.17 366.912 251.902C364.749 249.633 363.668 246.761 363.668 243.284C363.668 240.401 364.474 237.878 366.085 235.716C367.696 233.554 369.922 231.868 372.763 230.66C375.604 229.43 378.858 228.816 382.525 228.816C387.804 228.816 391.959 229.96 394.99 232.25C398.022 234.518 400.025 237.56 401 241.376Z" fill="white"/>
</svg>
